<?xml version="1.0" encoding="UTF-8"?>
<svg version="1.1" xmlns="http://www.w3.org/2000/svg" width="594" height="82">
<path d="M0 0 C196.02 0 392.04 0 594 0 C594 27.06 594 54.12 594 82 C397.98 82 201.96 82 0 82 C0 54.94 0 27.88 0 0 Z " fill="#FED200" transform="translate(0,0)"/>
<path d="M0 0 C14.85 0 29.7 0 45 0 C45 27.06 45 54.12 45 82 C19.59 82 -5.82 82 -32 82 C-26 75 -26 75 -22.625 71.875 C-7.22471918 56.57670779 -2.05601622 33.51282334 -0.8125 12.6875 C-0.544375 8.500625 -0.27625 4.31375 0 0 Z " fill="#FEFEFD" transform="translate(549,0)"/>
</svg>
